<mxfile host="app.diagrams.net" modified="2023-09-06T19:28:28.782Z" agent="Mozilla/5.0 (Windows NT 10.0; Win64; x64; rv:109.0) Gecko/20100101 Firefox/117.0" etag="qsvVMgi7Y33WEfZVGE2L" version="21.7.2" type="github">
  <diagram name="Page-1" id="c4acf3e9-155e-7222-9cf6-157b1a14988f">
    <mxGraphModel dx="1731" dy="1449" grid="0" gridSize="10" guides="1" tooltips="1" connect="1" arrows="1" fold="1" page="0" pageScale="1" pageWidth="827" pageHeight="1169" background="none" math="0" shadow="0">
      <root>
        <mxCell id="0" />
        <mxCell id="1" parent="0" />
        <mxCell id="KaLWTNi_uwIXfUUR0p99-1" value="AchievementsSystem" style="swimlane;fontStyle=1;align=center;verticalAlign=top;childLayout=stackLayout;horizontal=1;startSize=26;horizontalStack=0;resizeParent=1;resizeParentMax=0;resizeLast=0;collapsible=1;marginBottom=0;whiteSpace=wrap;html=1;" parent="1" vertex="1">
          <mxGeometry x="498" y="440" width="260" height="242" as="geometry" />
        </mxCell>
        <mxCell id="KaLWTNi_uwIXfUUR0p99-5" value="- playedTime: int" style="text;strokeColor=none;fillColor=none;align=left;verticalAlign=top;spacingLeft=4;spacingRight=4;overflow=hidden;rotatable=0;points=[[0,0.5],[1,0.5]];portConstraint=eastwest;whiteSpace=wrap;html=1;" parent="KaLWTNi_uwIXfUUR0p99-1" vertex="1">
          <mxGeometry y="26" width="260" height="26" as="geometry" />
        </mxCell>
        <mxCell id="t47t9JfguGdJ9MnKsgUA-10" value="- travelledDistanceByRun: int" style="text;strokeColor=none;fillColor=none;align=left;verticalAlign=top;spacingLeft=4;spacingRight=4;overflow=hidden;rotatable=0;points=[[0,0.5],[1,0.5]];portConstraint=eastwest;whiteSpace=wrap;html=1;" vertex="1" parent="KaLWTNi_uwIXfUUR0p99-1">
          <mxGeometry y="52" width="260" height="26" as="geometry" />
        </mxCell>
        <mxCell id="t47t9JfguGdJ9MnKsgUA-11" value="- travelledDistanceByWalk: int" style="text;strokeColor=none;fillColor=none;align=left;verticalAlign=top;spacingLeft=4;spacingRight=4;overflow=hidden;rotatable=0;points=[[0,0.5],[1,0.5]];portConstraint=eastwest;whiteSpace=wrap;html=1;" vertex="1" parent="KaLWTNi_uwIXfUUR0p99-1">
          <mxGeometry y="78" width="260" height="26" as="geometry" />
        </mxCell>
        <mxCell id="t47t9JfguGdJ9MnKsgUA-12" value="- levelsCompleted: int" style="text;strokeColor=none;fillColor=none;align=left;verticalAlign=top;spacingLeft=4;spacingRight=4;overflow=hidden;rotatable=0;points=[[0,0.5],[1,0.5]];portConstraint=eastwest;whiteSpace=wrap;html=1;" vertex="1" parent="KaLWTNi_uwIXfUUR0p99-1">
          <mxGeometry y="104" width="260" height="26" as="geometry" />
        </mxCell>
        <mxCell id="t47t9JfguGdJ9MnKsgUA-13" value="- introsWatched: int" style="text;strokeColor=none;fillColor=none;align=left;verticalAlign=top;spacingLeft=4;spacingRight=4;overflow=hidden;rotatable=0;points=[[0,0.5],[1,0.5]];portConstraint=eastwest;whiteSpace=wrap;html=1;" vertex="1" parent="KaLWTNi_uwIXfUUR0p99-1">
          <mxGeometry y="130" width="260" height="26" as="geometry" />
        </mxCell>
        <mxCell id="t47t9JfguGdJ9MnKsgUA-38" value="- availableBadges: LinkedList&amp;lt;Badge&amp;gt;" style="text;strokeColor=none;fillColor=none;align=left;verticalAlign=top;spacingLeft=4;spacingRight=4;overflow=hidden;rotatable=0;points=[[0,0.5],[1,0.5]];portConstraint=eastwest;whiteSpace=wrap;html=1;" vertex="1" parent="KaLWTNi_uwIXfUUR0p99-1">
          <mxGeometry y="156" width="260" height="26" as="geometry" />
        </mxCell>
        <mxCell id="KaLWTNi_uwIXfUUR0p99-3" value="" style="line;strokeWidth=1;fillColor=none;align=left;verticalAlign=middle;spacingTop=-1;spacingLeft=3;spacingRight=3;rotatable=0;labelPosition=right;points=[];portConstraint=eastwest;strokeColor=inherit;" parent="KaLWTNi_uwIXfUUR0p99-1" vertex="1">
          <mxGeometry y="182" width="260" height="8" as="geometry" />
        </mxCell>
        <mxCell id="t47t9JfguGdJ9MnKsgUA-30" value="+ AchievementSystem()" style="text;strokeColor=none;fillColor=none;align=left;verticalAlign=top;spacingLeft=4;spacingRight=4;overflow=hidden;rotatable=0;points=[[0,0.5],[1,0.5]];portConstraint=eastwest;whiteSpace=wrap;html=1;" vertex="1" parent="KaLWTNi_uwIXfUUR0p99-1">
          <mxGeometry y="190" width="260" height="26" as="geometry" />
        </mxCell>
        <mxCell id="KaLWTNi_uwIXfUUR0p99-4" value="+ updateAchievements(): void" style="text;strokeColor=none;fillColor=none;align=left;verticalAlign=top;spacingLeft=4;spacingRight=4;overflow=hidden;rotatable=0;points=[[0,0.5],[1,0.5]];portConstraint=eastwest;whiteSpace=wrap;html=1;" parent="KaLWTNi_uwIXfUUR0p99-1" vertex="1">
          <mxGeometry y="216" width="260" height="26" as="geometry" />
        </mxCell>
        <mxCell id="KaLWTNi_uwIXfUUR0p99-6" value="User" style="swimlane;fontStyle=1;align=center;verticalAlign=top;childLayout=stackLayout;horizontal=1;startSize=26;horizontalStack=0;resizeParent=1;resizeParentMax=0;resizeLast=0;collapsible=1;marginBottom=0;whiteSpace=wrap;html=1;" parent="1" vertex="1">
          <mxGeometry x="-60" y="370" width="370" height="423" as="geometry">
            <mxRectangle x="60" y="430" width="70" height="30" as="alternateBounds" />
          </mxGeometry>
        </mxCell>
        <mxCell id="KaLWTNi_uwIXfUUR0p99-7" value="- name: String" style="text;strokeColor=none;fillColor=none;align=left;verticalAlign=top;spacingLeft=4;spacingRight=4;overflow=hidden;rotatable=0;points=[[0,0.5],[1,0.5]];portConstraint=eastwest;whiteSpace=wrap;html=1;" parent="KaLWTNi_uwIXfUUR0p99-6" vertex="1">
          <mxGeometry y="26" width="370" height="26" as="geometry" />
        </mxCell>
        <mxCell id="KaLWTNi_uwIXfUUR0p99-11" value="- membership: Membership" style="text;strokeColor=none;fillColor=none;align=left;verticalAlign=top;spacingLeft=4;spacingRight=4;overflow=hidden;rotatable=0;points=[[0,0.5],[1,0.5]];portConstraint=eastwest;whiteSpace=wrap;html=1;" parent="KaLWTNi_uwIXfUUR0p99-6" vertex="1">
          <mxGeometry y="52" width="370" height="26" as="geometry" />
        </mxCell>
        <mxCell id="t47t9JfguGdJ9MnKsgUA-4" value="- achievementsSystem: AchievementsSystem" style="text;strokeColor=none;fillColor=none;align=left;verticalAlign=top;spacingLeft=4;spacingRight=4;overflow=hidden;rotatable=0;points=[[0,0.5],[1,0.5]];portConstraint=eastwest;whiteSpace=wrap;html=1;" vertex="1" parent="KaLWTNi_uwIXfUUR0p99-6">
          <mxGeometry y="78" width="370" height="26" as="geometry" />
        </mxCell>
        <mxCell id="KaLWTNi_uwIXfUUR0p99-12" value="&lt;div&gt;- pointsBalance: int&lt;/div&gt;&lt;div&gt;&lt;br&gt;&lt;/div&gt;" style="text;strokeColor=none;fillColor=none;align=left;verticalAlign=top;spacingLeft=4;spacingRight=4;overflow=hidden;rotatable=0;points=[[0,0.5],[1,0.5]];portConstraint=eastwest;whiteSpace=wrap;html=1;" parent="KaLWTNi_uwIXfUUR0p99-6" vertex="1">
          <mxGeometry y="104" width="370" height="26" as="geometry" />
        </mxCell>
        <mxCell id="KaLWTNi_uwIXfUUR0p99-8" value="- moneyBalance: int" style="text;strokeColor=none;fillColor=none;align=left;verticalAlign=top;spacingLeft=4;spacingRight=4;overflow=hidden;rotatable=0;points=[[0,0.5],[1,0.5]];portConstraint=eastwest;whiteSpace=wrap;html=1;" parent="KaLWTNi_uwIXfUUR0p99-6" vertex="1">
          <mxGeometry y="130" width="370" height="26" as="geometry" />
        </mxCell>
        <mxCell id="t47t9JfguGdJ9MnKsgUA-2" value="- defaultPaymentMethod: PaymentMethod" style="text;strokeColor=none;fillColor=none;align=left;verticalAlign=top;spacingLeft=4;spacingRight=4;overflow=hidden;rotatable=0;points=[[0,0.5],[1,0.5]];portConstraint=eastwest;whiteSpace=wrap;html=1;" vertex="1" parent="KaLWTNi_uwIXfUUR0p99-6">
          <mxGeometry y="156" width="370" height="26" as="geometry" />
        </mxCell>
        <mxCell id="t47t9JfguGdJ9MnKsgUA-24" value="- purchases: LinkedList&amp;lt;Product&amp;gt;" style="text;strokeColor=none;fillColor=none;align=left;verticalAlign=top;spacingLeft=4;spacingRight=4;overflow=hidden;rotatable=0;points=[[0,0.5],[1,0.5]];portConstraint=eastwest;whiteSpace=wrap;html=1;" vertex="1" parent="KaLWTNi_uwIXfUUR0p99-6">
          <mxGeometry y="182" width="370" height="26" as="geometry" />
        </mxCell>
        <mxCell id="t47t9JfguGdJ9MnKsgUA-26" value="- earnedBadges: LinkedList&amp;lt;Badge&amp;gt;" style="text;strokeColor=none;fillColor=none;align=left;verticalAlign=top;spacingLeft=4;spacingRight=4;overflow=hidden;rotatable=0;points=[[0,0.5],[1,0.5]];portConstraint=eastwest;whiteSpace=wrap;html=1;" vertex="1" parent="KaLWTNi_uwIXfUUR0p99-6">
          <mxGeometry y="208" width="370" height="26" as="geometry" />
        </mxCell>
        <mxCell id="KaLWTNi_uwIXfUUR0p99-9" value="" style="line;strokeWidth=1;fillColor=none;align=left;verticalAlign=middle;spacingTop=-1;spacingLeft=3;spacingRight=3;rotatable=0;labelPosition=right;points=[];portConstraint=eastwest;strokeColor=inherit;" parent="KaLWTNi_uwIXfUUR0p99-6" vertex="1">
          <mxGeometry y="234" width="370" height="8" as="geometry" />
        </mxCell>
        <mxCell id="t47t9JfguGdJ9MnKsgUA-29" value="+ User(name: String)" style="text;strokeColor=none;fillColor=none;align=left;verticalAlign=top;spacingLeft=4;spacingRight=4;overflow=hidden;rotatable=0;points=[[0,0.5],[1,0.5]];portConstraint=eastwest;whiteSpace=wrap;html=1;" vertex="1" parent="KaLWTNi_uwIXfUUR0p99-6">
          <mxGeometry y="242" width="370" height="26" as="geometry" />
        </mxCell>
        <mxCell id="t47t9JfguGdJ9MnKsgUA-28" value="&lt;div&gt;+ purchase(product: Product, method: PaymentMethod): void&lt;/div&gt;" style="text;strokeColor=none;fillColor=none;align=left;verticalAlign=top;spacingLeft=4;spacingRight=4;overflow=hidden;rotatable=0;points=[[0,0.5],[1,0.5]];portConstraint=eastwest;whiteSpace=wrap;html=1;" vertex="1" parent="KaLWTNi_uwIXfUUR0p99-6">
          <mxGeometry y="268" width="370" height="26" as="geometry" />
        </mxCell>
        <mxCell id="t47t9JfguGdJ9MnKsgUA-32" value="&lt;div&gt;+ changeDefaultPaymentMethod(method: PaymentMethod): void&lt;br&gt;&lt;/div&gt;" style="text;strokeColor=none;fillColor=none;align=left;verticalAlign=top;spacingLeft=4;spacingRight=4;overflow=hidden;rotatable=0;points=[[0,0.5],[1,0.5]];portConstraint=eastwest;whiteSpace=wrap;html=1;" vertex="1" parent="KaLWTNi_uwIXfUUR0p99-6">
          <mxGeometry y="294" width="370" height="25" as="geometry" />
        </mxCell>
        <mxCell id="KaLWTNi_uwIXfUUR0p99-10" value="&lt;div&gt;+ run(distance: int): void&lt;/div&gt;" style="text;strokeColor=none;fillColor=none;align=left;verticalAlign=top;spacingLeft=4;spacingRight=4;overflow=hidden;rotatable=0;points=[[0,0.5],[1,0.5]];portConstraint=eastwest;whiteSpace=wrap;html=1;" parent="KaLWTNi_uwIXfUUR0p99-6" vertex="1">
          <mxGeometry y="319" width="370" height="26" as="geometry" />
        </mxCell>
        <mxCell id="t47t9JfguGdJ9MnKsgUA-21" value="+ walk(distance: int): void" style="text;strokeColor=none;fillColor=none;align=left;verticalAlign=top;spacingLeft=4;spacingRight=4;overflow=hidden;rotatable=0;points=[[0,0.5],[1,0.5]];portConstraint=eastwest;whiteSpace=wrap;html=1;" vertex="1" parent="KaLWTNi_uwIXfUUR0p99-6">
          <mxGeometry y="345" width="370" height="26" as="geometry" />
        </mxCell>
        <mxCell id="t47t9JfguGdJ9MnKsgUA-22" value="+ play(minutes: int): void" style="text;strokeColor=none;fillColor=none;align=left;verticalAlign=top;spacingLeft=4;spacingRight=4;overflow=hidden;rotatable=0;points=[[0,0.5],[1,0.5]];portConstraint=eastwest;whiteSpace=wrap;html=1;" vertex="1" parent="KaLWTNi_uwIXfUUR0p99-6">
          <mxGeometry y="371" width="370" height="26" as="geometry" />
        </mxCell>
        <mxCell id="t47t9JfguGdJ9MnKsgUA-23" value="&lt;div&gt;+ watchIntro(): void&lt;/div&gt;" style="text;strokeColor=none;fillColor=none;align=left;verticalAlign=top;spacingLeft=4;spacingRight=4;overflow=hidden;rotatable=0;points=[[0,0.5],[1,0.5]];portConstraint=eastwest;whiteSpace=wrap;html=1;" vertex="1" parent="KaLWTNi_uwIXfUUR0p99-6">
          <mxGeometry y="397" width="370" height="26" as="geometry" />
        </mxCell>
        <mxCell id="KaLWTNi_uwIXfUUR0p99-26" value="Product" style="swimlane;fontStyle=1;align=center;verticalAlign=top;childLayout=stackLayout;horizontal=1;startSize=26;horizontalStack=0;resizeParent=1;resizeParentMax=0;resizeLast=0;collapsible=1;marginBottom=0;whiteSpace=wrap;html=1;rotation=0;" parent="1" vertex="1">
          <mxGeometry x="21" y="1140" width="208" height="180" as="geometry">
            <mxRectangle x="320" y="750" width="110" height="30" as="alternateBounds" />
          </mxGeometry>
        </mxCell>
        <mxCell id="KaLWTNi_uwIXfUUR0p99-27" value="- name: String" style="text;strokeColor=none;fillColor=none;align=left;verticalAlign=top;spacingLeft=4;spacingRight=4;overflow=hidden;rotatable=0;points=[[0,0.5],[1,0.5]];portConstraint=eastwest;whiteSpace=wrap;html=1;" parent="KaLWTNi_uwIXfUUR0p99-26" vertex="1">
          <mxGeometry y="26" width="208" height="26" as="geometry" />
        </mxCell>
        <mxCell id="KaLWTNi_uwIXfUUR0p99-30" value="- price: float" style="text;strokeColor=none;fillColor=none;align=left;verticalAlign=top;spacingLeft=4;spacingRight=4;overflow=hidden;rotatable=0;points=[[0,0.5],[1,0.5]];portConstraint=eastwest;whiteSpace=wrap;html=1;" parent="KaLWTNi_uwIXfUUR0p99-26" vertex="1">
          <mxGeometry y="52" width="208" height="26" as="geometry" />
        </mxCell>
        <mxCell id="KaLWTNi_uwIXfUUR0p99-32" value="- type: String" style="text;strokeColor=none;fillColor=none;align=left;verticalAlign=top;spacingLeft=4;spacingRight=4;overflow=hidden;rotatable=0;points=[[0,0.5],[1,0.5]];portConstraint=eastwest;whiteSpace=wrap;html=1;" parent="KaLWTNi_uwIXfUUR0p99-26" vertex="1">
          <mxGeometry y="78" width="208" height="26" as="geometry" />
        </mxCell>
        <mxCell id="KaLWTNi_uwIXfUUR0p99-31" value="- requiredMembership: Membership" style="text;strokeColor=none;fillColor=none;align=left;verticalAlign=top;spacingLeft=4;spacingRight=4;overflow=hidden;rotatable=0;points=[[0,0.5],[1,0.5]];portConstraint=eastwest;whiteSpace=wrap;html=1;" parent="KaLWTNi_uwIXfUUR0p99-26" vertex="1">
          <mxGeometry y="104" width="208" height="26" as="geometry" />
        </mxCell>
        <mxCell id="KaLWTNi_uwIXfUUR0p99-28" value="" style="line;strokeWidth=1;fillColor=none;align=left;verticalAlign=middle;spacingTop=-1;spacingLeft=3;spacingRight=3;rotatable=0;labelPosition=right;points=[];portConstraint=eastwest;strokeColor=inherit;" parent="KaLWTNi_uwIXfUUR0p99-26" vertex="1">
          <mxGeometry y="130" width="208" height="8" as="geometry" />
        </mxCell>
        <mxCell id="KaLWTNi_uwIXfUUR0p99-29" value="+ Product(name: String, price: int, type: String, reqMem: Membership) " style="text;strokeColor=none;fillColor=none;align=left;verticalAlign=top;spacingLeft=4;spacingRight=4;overflow=hidden;rotatable=0;points=[[0,0.5],[1,0.5]];portConstraint=eastwest;whiteSpace=wrap;html=1;" parent="KaLWTNi_uwIXfUUR0p99-26" vertex="1">
          <mxGeometry y="138" width="208" height="42" as="geometry" />
        </mxCell>
        <mxCell id="KaLWTNi_uwIXfUUR0p99-33" value="Badge" style="swimlane;fontStyle=1;align=center;verticalAlign=top;childLayout=stackLayout;horizontal=1;startSize=26;horizontalStack=0;resizeParent=1;resizeParentMax=0;resizeLast=0;collapsible=1;marginBottom=0;whiteSpace=wrap;html=1;" parent="1" vertex="1">
          <mxGeometry x="900" y="492" width="200" height="160" as="geometry">
            <mxRectangle x="320" y="750" width="110" height="30" as="alternateBounds" />
          </mxGeometry>
        </mxCell>
        <mxCell id="KaLWTNi_uwIXfUUR0p99-34" value="- name: String" style="text;strokeColor=none;fillColor=none;align=left;verticalAlign=top;spacingLeft=4;spacingRight=4;overflow=hidden;rotatable=0;points=[[0,0.5],[1,0.5]];portConstraint=eastwest;whiteSpace=wrap;html=1;" parent="KaLWTNi_uwIXfUUR0p99-33" vertex="1">
          <mxGeometry y="26" width="200" height="26" as="geometry" />
        </mxCell>
        <mxCell id="KaLWTNi_uwIXfUUR0p99-35" value="- description: String" style="text;strokeColor=none;fillColor=none;align=left;verticalAlign=top;spacingLeft=4;spacingRight=4;overflow=hidden;rotatable=0;points=[[0,0.5],[1,0.5]];portConstraint=eastwest;whiteSpace=wrap;html=1;" parent="KaLWTNi_uwIXfUUR0p99-33" vertex="1">
          <mxGeometry y="52" width="200" height="26" as="geometry" />
        </mxCell>
        <mxCell id="KaLWTNi_uwIXfUUR0p99-36" value="- pointsToEarn: int" style="text;strokeColor=none;fillColor=none;align=left;verticalAlign=top;spacingLeft=4;spacingRight=4;overflow=hidden;rotatable=0;points=[[0,0.5],[1,0.5]];portConstraint=eastwest;whiteSpace=wrap;html=1;" parent="KaLWTNi_uwIXfUUR0p99-33" vertex="1">
          <mxGeometry y="78" width="200" height="26" as="geometry" />
        </mxCell>
        <mxCell id="KaLWTNi_uwIXfUUR0p99-38" value="" style="line;strokeWidth=1;fillColor=none;align=left;verticalAlign=middle;spacingTop=-1;spacingLeft=3;spacingRight=3;rotatable=0;labelPosition=right;points=[];portConstraint=eastwest;strokeColor=inherit;" parent="KaLWTNi_uwIXfUUR0p99-33" vertex="1">
          <mxGeometry y="104" width="200" height="8" as="geometry" />
        </mxCell>
        <mxCell id="KaLWTNi_uwIXfUUR0p99-39" value="+ Badge(name: String, description: String, pointsToEarn: int)" style="text;strokeColor=none;fillColor=none;align=left;verticalAlign=top;spacingLeft=4;spacingRight=4;overflow=hidden;rotatable=0;points=[[0,0.5],[1,0.5]];portConstraint=eastwest;whiteSpace=wrap;html=1;" parent="KaLWTNi_uwIXfUUR0p99-33" vertex="1">
          <mxGeometry y="112" width="200" height="48" as="geometry" />
        </mxCell>
        <mxCell id="t47t9JfguGdJ9MnKsgUA-20" value="&lt;p style=&quot;margin:0px;margin-top:4px;text-align:center;&quot;&gt;&lt;i&gt;&amp;lt;&amp;lt;enumeration&amp;gt;&lt;/i&gt;&lt;i&gt;&amp;gt;&lt;/i&gt;&lt;/p&gt;&lt;p style=&quot;margin:0px;margin-top:4px;text-align:center;&quot;&gt;&lt;i&gt;&lt;b&gt;Membership&lt;br&gt;&lt;/b&gt;&lt;/i&gt;&lt;/p&gt;&lt;hr size=&quot;1&quot;&gt;&lt;div&gt;&amp;nbsp;&amp;nbsp; Regular&lt;/div&gt;&lt;div&gt;&amp;nbsp;&amp;nbsp; Preferential&lt;/div&gt;&lt;div&gt;&amp;nbsp;&amp;nbsp; VIP&lt;br&gt;&lt;/div&gt;" style="verticalAlign=top;align=left;overflow=fill;fontSize=12;fontFamily=Helvetica;html=1;whiteSpace=wrap;" vertex="1" parent="1">
          <mxGeometry x="-60" y="150" width="120" height="100" as="geometry" />
        </mxCell>
        <mxCell id="t47t9JfguGdJ9MnKsgUA-25" value="&lt;p style=&quot;margin:0px;margin-top:4px;text-align:center;&quot;&gt;&lt;i&gt;&amp;lt;&amp;lt;enumeration&amp;gt;&lt;/i&gt;&lt;i&gt;&amp;gt;&lt;/i&gt;&lt;/p&gt;&lt;p style=&quot;margin:0px;margin-top:4px;text-align:center;&quot;&gt;&lt;i&gt;&lt;b&gt;PaymentMethod&lt;br&gt;&lt;/b&gt;&lt;/i&gt;&lt;/p&gt;&lt;hr size=&quot;1&quot;&gt;&lt;div&gt;&amp;nbsp;&amp;nbsp; Cash&lt;/div&gt;&lt;div&gt;&amp;nbsp;&amp;nbsp; Points&lt;br&gt;&lt;/div&gt;" style="verticalAlign=top;align=left;overflow=fill;fontSize=12;fontFamily=Helvetica;html=1;whiteSpace=wrap;" vertex="1" parent="1">
          <mxGeometry x="190" y="150" width="120" height="100" as="geometry" />
        </mxCell>
        <mxCell id="t47t9JfguGdJ9MnKsgUA-33" value="Store" style="swimlane;fontStyle=1;align=center;verticalAlign=top;childLayout=stackLayout;horizontal=1;startSize=26;horizontalStack=0;resizeParent=1;resizeParentMax=0;resizeLast=0;collapsible=1;marginBottom=0;whiteSpace=wrap;html=1;" vertex="1" parent="1">
          <mxGeometry x="-15" y="920" width="280" height="86" as="geometry">
            <mxRectangle x="320" y="430" width="110" height="30" as="alternateBounds" />
          </mxGeometry>
        </mxCell>
        <mxCell id="t47t9JfguGdJ9MnKsgUA-34" value="- products: LinkedList&amp;lt;Product&amp;gt;" style="text;strokeColor=none;fillColor=none;align=left;verticalAlign=top;spacingLeft=4;spacingRight=4;overflow=hidden;rotatable=0;points=[[0,0.5],[1,0.5]];portConstraint=eastwest;whiteSpace=wrap;html=1;" vertex="1" parent="t47t9JfguGdJ9MnKsgUA-33">
          <mxGeometry y="26" width="280" height="26" as="geometry" />
        </mxCell>
        <mxCell id="t47t9JfguGdJ9MnKsgUA-35" value="" style="line;strokeWidth=1;fillColor=none;align=left;verticalAlign=middle;spacingTop=-1;spacingLeft=3;spacingRight=3;rotatable=0;labelPosition=right;points=[];portConstraint=eastwest;strokeColor=inherit;" vertex="1" parent="t47t9JfguGdJ9MnKsgUA-33">
          <mxGeometry y="52" width="280" height="8" as="geometry" />
        </mxCell>
        <mxCell id="t47t9JfguGdJ9MnKsgUA-36" value="+ Store()" style="text;strokeColor=none;fillColor=none;align=left;verticalAlign=top;spacingLeft=4;spacingRight=4;overflow=hidden;rotatable=0;points=[[0,0.5],[1,0.5]];portConstraint=eastwest;whiteSpace=wrap;html=1;" vertex="1" parent="t47t9JfguGdJ9MnKsgUA-33">
          <mxGeometry y="60" width="280" height="26" as="geometry" />
        </mxCell>
        <mxCell id="t47t9JfguGdJ9MnKsgUA-45" value="Main" style="swimlane;fontStyle=1;align=center;verticalAlign=top;childLayout=stackLayout;horizontal=1;startSize=26;horizontalStack=0;resizeParent=1;resizeParentMax=0;resizeLast=0;collapsible=1;marginBottom=0;whiteSpace=wrap;html=1;" vertex="1" parent="1">
          <mxGeometry x="-438" y="512.5" width="280" height="112" as="geometry">
            <mxRectangle x="320" y="430" width="110" height="30" as="alternateBounds" />
          </mxGeometry>
        </mxCell>
        <mxCell id="t47t9JfguGdJ9MnKsgUA-46" value="- users: LinkedList&amp;lt;User&amp;gt;" style="text;strokeColor=none;fillColor=none;align=left;verticalAlign=top;spacingLeft=4;spacingRight=4;overflow=hidden;rotatable=0;points=[[0,0.5],[1,0.5]];portConstraint=eastwest;whiteSpace=wrap;html=1;" vertex="1" parent="t47t9JfguGdJ9MnKsgUA-45">
          <mxGeometry y="26" width="280" height="26" as="geometry" />
        </mxCell>
        <mxCell id="t47t9JfguGdJ9MnKsgUA-47" value="" style="line;strokeWidth=1;fillColor=none;align=left;verticalAlign=middle;spacingTop=-1;spacingLeft=3;spacingRight=3;rotatable=0;labelPosition=right;points=[];portConstraint=eastwest;strokeColor=inherit;" vertex="1" parent="t47t9JfguGdJ9MnKsgUA-45">
          <mxGeometry y="52" width="280" height="8" as="geometry" />
        </mxCell>
        <mxCell id="t47t9JfguGdJ9MnKsgUA-48" value="&lt;div&gt;+ setupUsers(): void&lt;/div&gt;" style="text;strokeColor=none;fillColor=none;align=left;verticalAlign=top;spacingLeft=4;spacingRight=4;overflow=hidden;rotatable=0;points=[[0,0.5],[1,0.5]];portConstraint=eastwest;whiteSpace=wrap;html=1;" vertex="1" parent="t47t9JfguGdJ9MnKsgUA-45">
          <mxGeometry y="60" width="280" height="26" as="geometry" />
        </mxCell>
        <mxCell id="t47t9JfguGdJ9MnKsgUA-50" value="+ setupProducts(): void" style="text;strokeColor=none;fillColor=none;align=left;verticalAlign=top;spacingLeft=4;spacingRight=4;overflow=hidden;rotatable=0;points=[[0,0.5],[1,0.5]];portConstraint=eastwest;whiteSpace=wrap;html=1;" vertex="1" parent="t47t9JfguGdJ9MnKsgUA-45">
          <mxGeometry y="86" width="280" height="26" as="geometry" />
        </mxCell>
        <mxCell id="t47t9JfguGdJ9MnKsgUA-61" value="&lt;div&gt;&lt;p style=&quot;margin:0px;margin-top:4px;text-align:center;&quot;&gt;&lt;span style=&quot;font-weight: normal;&quot;&gt;&lt;i&gt;&amp;lt;&amp;lt;abstract&amp;gt;&lt;/i&gt;&lt;i&gt;&amp;gt;&lt;/i&gt;&lt;/span&gt;&lt;/p&gt;&lt;/div&gt;&lt;div&gt;Action&lt;/div&gt;" style="swimlane;fontStyle=1;align=center;verticalAlign=top;childLayout=stackLayout;horizontal=1;startSize=54;horizontalStack=0;resizeParent=1;resizeParentMax=0;resizeLast=0;collapsible=1;marginBottom=0;whiteSpace=wrap;html=1;fontSize=16;" vertex="1" parent="1">
          <mxGeometry x="637" y="942" width="329" height="192" as="geometry" />
        </mxCell>
        <mxCell id="t47t9JfguGdJ9MnKsgUA-62" value="- amount: int" style="text;strokeColor=none;fillColor=none;align=left;verticalAlign=top;spacingLeft=4;spacingRight=4;overflow=hidden;rotatable=0;points=[[0,0.5],[1,0.5]];portConstraint=eastwest;whiteSpace=wrap;html=1;fontSize=16;" vertex="1" parent="t47t9JfguGdJ9MnKsgUA-61">
          <mxGeometry y="54" width="329" height="26" as="geometry" />
        </mxCell>
        <mxCell id="t47t9JfguGdJ9MnKsgUA-65" value="&lt;div&gt;- unit: String&lt;/div&gt;" style="text;strokeColor=none;fillColor=none;align=left;verticalAlign=top;spacingLeft=4;spacingRight=4;overflow=hidden;rotatable=0;points=[[0,0.5],[1,0.5]];portConstraint=eastwest;whiteSpace=wrap;html=1;fontSize=16;" vertex="1" parent="t47t9JfguGdJ9MnKsgUA-61">
          <mxGeometry y="80" width="329" height="26" as="geometry" />
        </mxCell>
        <mxCell id="t47t9JfguGdJ9MnKsgUA-63" value="" style="line;strokeWidth=1;fillColor=none;align=left;verticalAlign=middle;spacingTop=-1;spacingLeft=3;spacingRight=3;rotatable=0;labelPosition=right;points=[];portConstraint=eastwest;strokeColor=inherit;fontSize=16;" vertex="1" parent="t47t9JfguGdJ9MnKsgUA-61">
          <mxGeometry y="106" width="329" height="8" as="geometry" />
        </mxCell>
        <mxCell id="t47t9JfguGdJ9MnKsgUA-67" value="+ Action(amount: int, unit: String)" style="text;strokeColor=none;fillColor=none;align=left;verticalAlign=top;spacingLeft=4;spacingRight=4;overflow=hidden;rotatable=0;points=[[0,0.5],[1,0.5]];portConstraint=eastwest;whiteSpace=wrap;html=1;fontSize=16;" vertex="1" parent="t47t9JfguGdJ9MnKsgUA-61">
          <mxGeometry y="114" width="329" height="26" as="geometry" />
        </mxCell>
        <mxCell id="t47t9JfguGdJ9MnKsgUA-64" value="+ actOn(user: User): void" style="text;strokeColor=none;fillColor=none;align=left;verticalAlign=top;spacingLeft=4;spacingRight=4;overflow=hidden;rotatable=0;points=[[0,0.5],[1,0.5]];portConstraint=eastwest;whiteSpace=wrap;html=1;fontSize=16;" vertex="1" parent="t47t9JfguGdJ9MnKsgUA-61">
          <mxGeometry y="140" width="329" height="26" as="geometry" />
        </mxCell>
        <mxCell id="t47t9JfguGdJ9MnKsgUA-66" value="+ applyForBadge(user: User): void" style="text;strokeColor=none;fillColor=none;align=left;verticalAlign=top;spacingLeft=4;spacingRight=4;overflow=hidden;rotatable=0;points=[[0,0.5],[1,0.5]];portConstraint=eastwest;whiteSpace=wrap;html=1;fontSize=16;" vertex="1" parent="t47t9JfguGdJ9MnKsgUA-61">
          <mxGeometry y="166" width="329" height="26" as="geometry" />
        </mxCell>
        <mxCell id="t47t9JfguGdJ9MnKsgUA-68" value="RunAction" style="swimlane;fontStyle=1;align=center;verticalAlign=top;childLayout=stackLayout;horizontal=1;startSize=26;horizontalStack=0;resizeParent=1;resizeParentMax=0;resizeLast=0;collapsible=1;marginBottom=0;whiteSpace=wrap;html=1;rotation=0;" vertex="1" parent="1">
          <mxGeometry x="359" y="1286" width="208" height="88" as="geometry">
            <mxRectangle x="320" y="750" width="110" height="30" as="alternateBounds" />
          </mxGeometry>
        </mxCell>
        <mxCell id="t47t9JfguGdJ9MnKsgUA-72" value="- minimumAmountForBadge: int" style="text;strokeColor=none;fillColor=none;align=left;verticalAlign=top;spacingLeft=4;spacingRight=4;overflow=hidden;rotatable=0;points=[[0,0.5],[1,0.5]];portConstraint=eastwest;whiteSpace=wrap;html=1;" vertex="1" parent="t47t9JfguGdJ9MnKsgUA-68">
          <mxGeometry y="26" width="208" height="26" as="geometry" />
        </mxCell>
        <mxCell id="t47t9JfguGdJ9MnKsgUA-73" value="" style="line;strokeWidth=1;fillColor=none;align=left;verticalAlign=middle;spacingTop=-1;spacingLeft=3;spacingRight=3;rotatable=0;labelPosition=right;points=[];portConstraint=eastwest;strokeColor=inherit;" vertex="1" parent="t47t9JfguGdJ9MnKsgUA-68">
          <mxGeometry y="52" width="208" height="8" as="geometry" />
        </mxCell>
        <mxCell id="t47t9JfguGdJ9MnKsgUA-74" value="+ RunAction(amount: int, unit: String)" style="text;strokeColor=none;fillColor=none;align=left;verticalAlign=top;spacingLeft=4;spacingRight=4;overflow=hidden;rotatable=0;points=[[0,0.5],[1,0.5]];portConstraint=eastwest;whiteSpace=wrap;html=1;" vertex="1" parent="t47t9JfguGdJ9MnKsgUA-68">
          <mxGeometry y="60" width="208" height="28" as="geometry" />
        </mxCell>
        <mxCell id="t47t9JfguGdJ9MnKsgUA-75" value="WalkAction" style="swimlane;fontStyle=1;align=center;verticalAlign=top;childLayout=stackLayout;horizontal=1;startSize=26;horizontalStack=0;resizeParent=1;resizeParentMax=0;resizeLast=0;collapsible=1;marginBottom=0;whiteSpace=wrap;html=1;rotation=0;" vertex="1" parent="1">
          <mxGeometry x="697.5" y="1286" width="218.5" height="88" as="geometry">
            <mxRectangle x="320" y="750" width="110" height="30" as="alternateBounds" />
          </mxGeometry>
        </mxCell>
        <mxCell id="t47t9JfguGdJ9MnKsgUA-107" value="-&amp;nbsp;minimumAmountForBadge: int" style="text;strokeColor=none;fillColor=none;align=left;verticalAlign=top;spacingLeft=4;spacingRight=4;overflow=hidden;rotatable=0;points=[[0,0.5],[1,0.5]];portConstraint=eastwest;whiteSpace=wrap;html=1;" vertex="1" parent="t47t9JfguGdJ9MnKsgUA-75">
          <mxGeometry y="26" width="218.5" height="26" as="geometry" />
        </mxCell>
        <mxCell id="t47t9JfguGdJ9MnKsgUA-80" value="" style="line;strokeWidth=1;fillColor=none;align=left;verticalAlign=middle;spacingTop=-1;spacingLeft=3;spacingRight=3;rotatable=0;labelPosition=right;points=[];portConstraint=eastwest;strokeColor=inherit;" vertex="1" parent="t47t9JfguGdJ9MnKsgUA-75">
          <mxGeometry y="52" width="218.5" height="8" as="geometry" />
        </mxCell>
        <mxCell id="t47t9JfguGdJ9MnKsgUA-109" value="+ WalkAction(amount: int, unit: String)" style="text;strokeColor=none;fillColor=none;align=left;verticalAlign=top;spacingLeft=4;spacingRight=4;overflow=hidden;rotatable=0;points=[[0,0.5],[1,0.5]];portConstraint=eastwest;whiteSpace=wrap;html=1;" vertex="1" parent="t47t9JfguGdJ9MnKsgUA-75">
          <mxGeometry y="60" width="218.5" height="28" as="geometry" />
        </mxCell>
        <mxCell id="t47t9JfguGdJ9MnKsgUA-82" value="WatchIntroAction" style="swimlane;fontStyle=1;align=center;verticalAlign=top;childLayout=stackLayout;horizontal=1;startSize=26;horizontalStack=0;resizeParent=1;resizeParentMax=0;resizeLast=0;collapsible=1;marginBottom=0;whiteSpace=wrap;html=1;rotation=0;" vertex="1" parent="1">
          <mxGeometry x="1037" y="1283" width="252" height="88" as="geometry">
            <mxRectangle x="320" y="750" width="110" height="30" as="alternateBounds" />
          </mxGeometry>
        </mxCell>
        <mxCell id="t47t9JfguGdJ9MnKsgUA-108" value="-&amp;nbsp;minimumAmountForBadge: int" style="text;strokeColor=none;fillColor=none;align=left;verticalAlign=top;spacingLeft=4;spacingRight=4;overflow=hidden;rotatable=0;points=[[0,0.5],[1,0.5]];portConstraint=eastwest;whiteSpace=wrap;html=1;" vertex="1" parent="t47t9JfguGdJ9MnKsgUA-82">
          <mxGeometry y="26" width="252" height="26" as="geometry" />
        </mxCell>
        <mxCell id="t47t9JfguGdJ9MnKsgUA-87" value="" style="line;strokeWidth=1;fillColor=none;align=left;verticalAlign=middle;spacingTop=-1;spacingLeft=3;spacingRight=3;rotatable=0;labelPosition=right;points=[];portConstraint=eastwest;strokeColor=inherit;" vertex="1" parent="t47t9JfguGdJ9MnKsgUA-82">
          <mxGeometry y="52" width="252" height="8" as="geometry" />
        </mxCell>
        <mxCell id="t47t9JfguGdJ9MnKsgUA-110" value="+ WatchIntroAction(amount: int, unit: String)" style="text;strokeColor=none;fillColor=none;align=left;verticalAlign=top;spacingLeft=4;spacingRight=4;overflow=hidden;rotatable=0;points=[[0,0.5],[1,0.5]];portConstraint=eastwest;whiteSpace=wrap;html=1;" vertex="1" parent="t47t9JfguGdJ9MnKsgUA-82">
          <mxGeometry y="60" width="252" height="28" as="geometry" />
        </mxCell>
        <mxCell id="t47t9JfguGdJ9MnKsgUA-89" value="&lt;div&gt;&lt;p style=&quot;margin:0px;margin-top:4px;text-align:center;&quot;&gt;&lt;span style=&quot;font-weight: normal;&quot;&gt;&lt;i&gt;&amp;lt;&amp;lt;interface&amp;gt;&lt;/i&gt;&lt;i&gt;&amp;gt;&lt;/i&gt;&lt;/span&gt;&lt;/p&gt;&lt;/div&gt;&lt;div&gt;IAction&lt;/div&gt;" style="swimlane;fontStyle=1;align=center;verticalAlign=top;childLayout=stackLayout;horizontal=1;startSize=54;horizontalStack=0;resizeParent=1;resizeParentMax=0;resizeLast=0;collapsible=1;marginBottom=0;whiteSpace=wrap;html=1;fontSize=16;" vertex="1" parent="1">
          <mxGeometry x="637" y="1701" width="329" height="166" as="geometry" />
        </mxCell>
        <mxCell id="t47t9JfguGdJ9MnKsgUA-96" value="&lt;font color=&quot;#ffffff&quot;&gt;+ Action(amount: int, unit: String)&lt;/font&gt;" style="text;strokeColor=none;fillColor=none;align=left;verticalAlign=top;spacingLeft=4;spacingRight=4;overflow=hidden;rotatable=0;points=[[0,0.5],[1,0.5]];portConstraint=eastwest;whiteSpace=wrap;html=1;fontSize=16;" vertex="1" parent="t47t9JfguGdJ9MnKsgUA-89">
          <mxGeometry y="54" width="329" height="26" as="geometry" />
        </mxCell>
        <mxCell id="t47t9JfguGdJ9MnKsgUA-92" value="" style="line;strokeWidth=1;fillColor=none;align=left;verticalAlign=middle;spacingTop=-1;spacingLeft=3;spacingRight=3;rotatable=0;labelPosition=right;points=[];portConstraint=eastwest;strokeColor=inherit;fontSize=16;" vertex="1" parent="t47t9JfguGdJ9MnKsgUA-89">
          <mxGeometry y="80" width="329" height="8" as="geometry" />
        </mxCell>
        <mxCell id="t47t9JfguGdJ9MnKsgUA-93" value="+ Action(amount: int, unit: String)" style="text;strokeColor=none;fillColor=none;align=left;verticalAlign=top;spacingLeft=4;spacingRight=4;overflow=hidden;rotatable=0;points=[[0,0.5],[1,0.5]];portConstraint=eastwest;whiteSpace=wrap;html=1;fontSize=16;" vertex="1" parent="t47t9JfguGdJ9MnKsgUA-89">
          <mxGeometry y="88" width="329" height="26" as="geometry" />
        </mxCell>
        <mxCell id="t47t9JfguGdJ9MnKsgUA-94" value="+ actOn(user: User): void" style="text;strokeColor=none;fillColor=none;align=left;verticalAlign=top;spacingLeft=4;spacingRight=4;overflow=hidden;rotatable=0;points=[[0,0.5],[1,0.5]];portConstraint=eastwest;whiteSpace=wrap;html=1;fontSize=16;" vertex="1" parent="t47t9JfguGdJ9MnKsgUA-89">
          <mxGeometry y="114" width="329" height="26" as="geometry" />
        </mxCell>
        <mxCell id="t47t9JfguGdJ9MnKsgUA-95" value="+ applyForBadge(user: User): void" style="text;strokeColor=none;fillColor=none;align=left;verticalAlign=top;spacingLeft=4;spacingRight=4;overflow=hidden;rotatable=0;points=[[0,0.5],[1,0.5]];portConstraint=eastwest;whiteSpace=wrap;html=1;fontSize=16;" vertex="1" parent="t47t9JfguGdJ9MnKsgUA-89">
          <mxGeometry y="140" width="329" height="26" as="geometry" />
        </mxCell>
        <mxCell id="t47t9JfguGdJ9MnKsgUA-97" value="" style="endArrow=block;dashed=1;endFill=0;endSize=12;html=1;rounded=0;fontSize=12;curved=1;exitX=0.503;exitY=1.183;exitDx=0;exitDy=0;exitPerimeter=0;entryX=0.25;entryY=0;entryDx=0;entryDy=0;" edge="1" parent="1" source="t47t9JfguGdJ9MnKsgUA-74" target="t47t9JfguGdJ9MnKsgUA-89">
          <mxGeometry width="160" relative="1" as="geometry">
            <mxPoint x="498" y="1767" as="sourcePoint" />
            <mxPoint x="193" y="1547" as="targetPoint" />
          </mxGeometry>
        </mxCell>
        <mxCell id="t47t9JfguGdJ9MnKsgUA-98" value="&lt;div&gt;Implements&lt;br&gt;&lt;/div&gt;" style="edgeLabel;html=1;align=center;verticalAlign=middle;resizable=0;points=[];fontSize=16;" vertex="1" connectable="0" parent="t47t9JfguGdJ9MnKsgUA-97">
          <mxGeometry x="-0.0204" y="6" relative="1" as="geometry">
            <mxPoint as="offset" />
          </mxGeometry>
        </mxCell>
        <mxCell id="t47t9JfguGdJ9MnKsgUA-99" value="" style="endArrow=block;dashed=1;endFill=0;endSize=12;html=1;rounded=0;fontSize=12;curved=1;exitX=0.467;exitY=0.977;exitDx=0;exitDy=0;exitPerimeter=0;entryX=0.5;entryY=0;entryDx=0;entryDy=0;" edge="1" parent="1" source="t47t9JfguGdJ9MnKsgUA-109" target="t47t9JfguGdJ9MnKsgUA-89">
          <mxGeometry width="160" relative="1" as="geometry">
            <mxPoint x="801.9160000000002" y="1397.324" as="sourcePoint" />
            <mxPoint x="705" y="1534" as="targetPoint" />
          </mxGeometry>
        </mxCell>
        <mxCell id="t47t9JfguGdJ9MnKsgUA-100" value="&lt;div&gt;Implements&lt;br&gt;&lt;/div&gt;" style="edgeLabel;html=1;align=center;verticalAlign=middle;resizable=0;points=[];fontSize=16;" vertex="1" connectable="0" parent="t47t9JfguGdJ9MnKsgUA-99">
          <mxGeometry x="-0.0204" y="6" relative="1" as="geometry">
            <mxPoint as="offset" />
          </mxGeometry>
        </mxCell>
        <mxCell id="t47t9JfguGdJ9MnKsgUA-101" value="" style="endArrow=block;dashed=1;endFill=0;endSize=12;html=1;rounded=0;fontSize=12;curved=1;entryX=0.75;entryY=0;entryDx=0;entryDy=0;exitX=0.58;exitY=1.084;exitDx=0;exitDy=0;exitPerimeter=0;" edge="1" parent="1" source="t47t9JfguGdJ9MnKsgUA-110" target="t47t9JfguGdJ9MnKsgUA-89">
          <mxGeometry width="160" relative="1" as="geometry">
            <mxPoint x="1167.0000000000005" y="1392.35" as="sourcePoint" />
            <mxPoint x="1168" y="1463" as="targetPoint" />
          </mxGeometry>
        </mxCell>
        <mxCell id="t47t9JfguGdJ9MnKsgUA-102" value="&lt;div&gt;Implements&lt;br&gt;&lt;/div&gt;" style="edgeLabel;html=1;align=center;verticalAlign=middle;resizable=0;points=[];fontSize=16;" vertex="1" connectable="0" parent="t47t9JfguGdJ9MnKsgUA-101">
          <mxGeometry x="-0.0204" y="6" relative="1" as="geometry">
            <mxPoint as="offset" />
          </mxGeometry>
        </mxCell>
        <mxCell id="t47t9JfguGdJ9MnKsgUA-103" value="Extends" style="endArrow=block;endSize=16;endFill=0;html=1;rounded=0;fontSize=12;curved=1;exitX=0.5;exitY=0;exitDx=0;exitDy=0;entryX=0;entryY=0.5;entryDx=0;entryDy=0;" edge="1" parent="1" source="t47t9JfguGdJ9MnKsgUA-68" target="t47t9JfguGdJ9MnKsgUA-66">
          <mxGeometry width="160" relative="1" as="geometry">
            <mxPoint x="441" y="1264" as="sourcePoint" />
            <mxPoint x="784" y="1134" as="targetPoint" />
          </mxGeometry>
        </mxCell>
        <mxCell id="t47t9JfguGdJ9MnKsgUA-104" value="Extends" style="endArrow=block;endSize=16;endFill=0;html=1;rounded=0;fontSize=12;curved=1;entryX=0.483;entryY=1.115;entryDx=0;entryDy=0;entryPerimeter=0;" edge="1" parent="1" target="t47t9JfguGdJ9MnKsgUA-66">
          <mxGeometry width="160" relative="1" as="geometry">
            <mxPoint x="796" y="1282" as="sourcePoint" />
            <mxPoint x="785" y="1137" as="targetPoint" />
          </mxGeometry>
        </mxCell>
        <mxCell id="t47t9JfguGdJ9MnKsgUA-105" value="Extends" style="endArrow=block;endSize=16;endFill=0;html=1;rounded=0;fontSize=12;curved=1;entryX=1;entryY=0.5;entryDx=0;entryDy=0;" edge="1" parent="1" target="t47t9JfguGdJ9MnKsgUA-66">
          <mxGeometry width="160" relative="1" as="geometry">
            <mxPoint x="1172.5" y="1283" as="sourcePoint" />
            <mxPoint x="1161.5" y="1138" as="targetPoint" />
          </mxGeometry>
        </mxCell>
      </root>
    </mxGraphModel>
  </diagram>
</mxfile>
